<svg xmlns="http://www.w3.org/2000/svg" width="512" height="512" viewBox="0 0 512 512" version="1.1">
	<path d="M 377.035 24.564 C 367.739 27.124, 355.825 34.893, 336.667 50.888 C 323.050 62.257, 318.215 65.597, 313.500 66.891 C 308.039 68.390, 300.848 68.221, 292.500 66.398 C 287.871 65.387, 277.540 64.693, 262 64.349 C 242.614 63.921, 236.662 64.133, 228 65.562 C 222.225 66.515, 213.450 67.472, 208.500 67.688 C 199.991 68.060, 199.227 67.921, 194.500 65.140 C 191.750 63.522, 185.350 58.584, 180.279 54.166 C 162.997 39.112, 147.871 28.587, 139.124 25.530 C 132.796 23.317, 125.882 23.529, 123.211 26.018 C 118.601 30.313, 115.990 46.810, 116.018 71.474 C 116.040 90.523, 117.781 103.898, 122.009 117.500 C 124.180 124.483, 124.910 128.405, 124.431 130.500 C 124.053 132.150, 123.665 137.325, 123.569 142 C 123.412 149.628, 122.973 151.423, 119.290 159.500 C 112.870 173.578, 111.510 184.324, 114.416 198 C 118.495 217.197, 128.398 229.221, 148.925 239.900 C 162.104 246.757, 163.724 252.075, 156.619 265.158 C 148.527 280.058, 145.490 297.325, 148.433 311.703 C 150.498 321.787, 150.072 322.818, 141.034 329.628 C 128.829 338.825, 121.221 353.303, 118.330 372.837 C 116.492 385.252, 117.397 396.638, 121.011 406.559 C 124.695 416.674, 124.753 416.540, 114.205 421.983 C 101.695 428.438, 94.953 430, 79.594 430 C 59.190 430, 52 432.735, 52 440.498 C 52 450.023, 66.600 455.010, 88.785 453.062 C 100.185 452.061, 111.962 448.565, 123.447 442.772 C 133.510 437.696, 136.440 436.920, 138.934 438.666 L 141.080 440.169 137.599 444.022 C 130.894 451.444, 130.403 460.603, 136.389 466.589 C 140.946 471.146, 146.170 472.257, 160.960 471.815 C 173.247 471.447, 175.925 470.805, 184.106 466.266 C 184.440 466.080, 184.972 468.439, 185.288 471.506 C 186.093 479.302, 188.499 482.975, 194.946 486.250 C 199.888 488.761, 201.321 488.999, 211.429 488.990 C 220.971 488.982, 223.204 488.653, 227.599 486.606 C 233.680 483.775, 237.090 479.381, 237.750 473.527 C 238.504 466.839, 236.561 462.897, 226.812 451.331 C 212.919 434.851, 208.644 432.122, 202.176 435.604 C 197.822 437.947, 191.502 445.755, 188.246 452.814 C 186.898 455.737, 185.673 457.987, 185.524 457.814 C 185.375 457.641, 184.033 451.425, 182.541 444 C 181.050 436.575, 176.993 419.250, 173.526 405.500 C 167.015 379.680, 165.598 372.268, 166.801 370.322 C 167.228 369.632, 170.295 372.568, 174.658 377.845 C 183.219 388.197, 205.067 411.266, 205.706 410.628 C 205.954 410.379, 203.848 403.499, 201.025 395.338 C 198.203 387.177, 194.539 375.551, 192.884 369.502 C 188.886 354.892, 187.658 352.390, 178.158 339.500 C 165.906 322.876, 162.074 314.806, 159.958 301.168 C 157.784 287.157, 162.554 271.549, 171.634 262.961 C 174.648 260.112, 177.425 258.096, 177.807 258.483 C 178.188 258.870, 176.743 260.665, 174.596 262.472 C 172.165 264.518, 170.906 266.312, 171.257 267.228 C 171.568 268.037, 174.852 269.987, 178.556 271.561 L 185.291 274.424 186.895 272.060 C 189.303 268.515, 195.983 261.650, 196.512 262.178 C 196.766 262.433, 194.955 264.809, 192.487 267.459 C 186.431 273.962, 186.609 275.350, 193.750 277.334 C 230.630 287.582, 262.873 288.980, 298.500 281.876 C 310.483 279.487, 323 275.965, 323 274.983 C 323 273.973, 317.647 267.371, 314.857 264.940 C 312.796 263.145, 312.762 263.013, 314.586 263.891 C 316.895 265.002, 323.491 271.972, 324.174 274.022 C 324.490 274.971, 326.781 274.258, 332.555 271.414 C 336.925 269.261, 340.489 267.050, 340.476 266.500 C 340.463 265.950, 338.346 263.941, 335.773 262.037 C 330.550 258.171, 330.181 257.008, 334.960 259.479 C 341.018 262.612, 345.607 268.358, 348.927 276.968 C 356.657 297.010, 353.085 312.705, 335.037 338 C 330.524 344.325, 326.228 350.937, 325.491 352.693 C 324.753 354.449, 322.938 361.424, 321.458 368.193 C 319.977 374.962, 316.994 386.502, 314.829 393.837 C 312.663 401.172, 311.028 407.564, 311.196 408.041 C 311.596 409.180, 331.976 386.975, 341.061 375.500 C 344.981 370.550, 348.595 366.350, 349.094 366.167 C 351.720 365.201, 348.656 383.787, 342.528 406 C 339.382 417.401, 334.987 436.310, 331.970 451.417 L 330.789 457.334 327.644 451.417 C 325.915 448.163, 322.003 442.913, 318.951 439.750 C 310.819 431.324, 307.337 431.852, 296.379 443.175 C 287.445 452.407, 281.387 460.298, 279.994 464.517 C 278.287 469.691, 279.160 478.012, 281.799 481.718 C 285.532 486.960, 290.052 488.455, 303.316 488.833 C 314.421 489.150, 315.457 489.011, 320.541 486.524 C 326.976 483.375, 329.583 480.043, 331.084 473.046 C 331.993 468.807, 332.497 467.991, 333.848 468.571 C 340.080 471.249, 346.332 472.085, 358 471.797 C 368.654 471.535, 371.196 471.147, 375.212 469.174 C 384.338 464.689, 386.489 456.081, 380.979 446.086 C 379.338 443.108, 378.205 440.462, 378.461 440.206 C 378.717 439.950, 382.881 441.036, 387.713 442.620 C 396.085 445.364, 397.350 445.499, 414.500 445.488 C 430.065 445.477, 433.628 445.169, 440.837 443.209 C 451.263 440.373, 459.942 436.046, 463.367 431.976 C 466.386 428.387, 466.570 427.003, 464.547 423.091 C 461.505 417.207, 453.260 416.269, 438.834 420.165 C 427.605 423.198, 406.011 423.469, 398.750 420.667 C 396.137 419.659, 394 418.500, 394 418.092 C 394 416.825, 398.230 413.472, 404.673 409.630 C 423.437 398.441, 434.449 373.751, 431.899 348.590 C 429.613 326.034, 417.354 305.738, 398.330 293.015 C 389.837 287.334, 380.799 284.211, 370.280 283.322 C 363.445 282.744, 362.922 282.532, 362.337 280.102 C 361.337 275.949, 355.412 264.673, 353.164 262.644 C 351.157 260.832, 351.037 260.838, 348.149 262.894 C 346.522 264.052, 344.836 265, 344.401 265 C 343.967 265, 345.161 263.857, 347.056 262.459 C 350.118 260.201, 350.526 259.351, 350.738 254.802 C 351.059 247.910, 352.738 245.741, 360.639 242.008 C 378.591 233.526, 390.560 221.219, 396.051 205.596 C 401.559 189.924, 400.515 175.405, 392.772 160 L 388.500 151.500 388.325 139 C 388.228 132.125, 388.125 125.238, 388.095 123.696 C 388.065 122.154, 389.112 117.193, 390.422 112.673 C 395.516 95.093, 398.059 65.984, 396.088 47.812 C 393.634 25.181, 390.164 20.947, 377.035 24.564 M 135.273 45.707 C 133.714 48.087, 133.500 51.018, 133.500 69.957 C 133.500 94.837, 134.994 108.603, 139.102 121.564 C 142.167 131.233, 145.935 136.465, 148.203 134.197 C 149.105 133.295, 148.894 132.143, 147.299 129.260 C 146.154 127.192, 144.917 124.079, 144.550 122.342 C 143.934 119.432, 144.119 119.133, 146.916 118.518 C 148.586 118.152, 150.361 118.105, 150.862 118.415 C 151.363 118.725, 152.276 118.373, 152.890 117.633 C 153.739 116.609, 153.415 115.418, 151.533 112.644 C 148.583 108.297, 148.977 108.118, 153.647 111.680 C 156.543 113.888, 157.316 114.108, 158.047 112.930 C 159.239 111.009, 156.413 108.264, 151.409 106.481 C 148.049 105.284, 147.851 105.062, 150 104.904 C 155.742 104.482, 160.569 105.243, 161.740 106.754 C 163.540 109.077, 164.275 107.698, 162.875 104.625 C 162.215 103.177, 161.861 101.825, 162.088 101.621 C 162.314 101.418, 164.863 101.564, 167.750 101.946 C 171.650 102.463, 173 102.321, 173 101.393 C 173 99.457, 168.482 96.363, 163.509 94.895 C 161.029 94.162, 159 93.223, 159 92.807 C 159 91.871, 163.704 92.597, 171.175 94.685 C 174.297 95.557, 177.571 95.995, 178.452 95.657 C 181.350 94.545, 173.270 88.394, 166.633 86.661 C 155.757 83.821, 158.611 83.322, 172.500 85.635 C 176.477 86.297, 176.489 86.289, 174.679 84.243 C 172.671 81.974, 164.459 78.109, 159 76.863 C 156.741 76.348, 158.515 76.229, 164 76.527 C 171.922 76.958, 172.364 76.881, 170.500 75.388 C 167.461 72.954, 163.032 71.270, 157.504 70.445 C 153.701 69.877, 152.984 69.520, 154.504 68.948 C 155.602 68.536, 158.525 68.426, 161 68.704 L 165.500 69.211 161.641 66.495 C 158.408 64.220, 157.110 63.878, 153.641 64.388 C 149.817 64.951, 149.649 64.883, 151.441 63.499 C 152.509 62.674, 154.534 61.985, 155.941 61.967 L 158.500 61.933 156.232 60.042 C 154.462 58.565, 153.309 58.338, 150.982 59.005 C 147.497 60.005, 147.215 59.469, 150.010 57.160 C 151.994 55.522, 151.966 55.437, 147.910 50.724 C 144.423 46.672, 139.508 43, 137.573 43 C 137.283 43, 136.248 44.218, 135.273 45.707 M 365.924 49.161 C 360.464 54.882, 360.070 55.578, 361.646 56.731 C 363.240 57.896, 363.200 58, 361.156 58 C 358.713 58, 354 60.710, 354 62.115 C 354 62.602, 355.913 63.045, 358.250 63.100 L 362.500 63.201 358.718 64.092 C 353.954 65.213, 349.770 67.357, 347.927 69.621 C 346.670 71.166, 346.693 71.302, 348.122 70.768 C 351.867 69.367, 359 68.789, 359 69.886 C 359 70.499, 357.988 71.003, 356.750 71.006 C 352.723 71.016, 347.064 73.041, 344.252 75.478 L 341.500 77.863 349.500 77.475 C 354.981 77.209, 356.220 77.323, 353.434 77.836 C 345.865 79.231, 332.299 87.066, 337.628 86.964 C 338.657 86.945, 342.200 86.277, 345.500 85.480 C 352.652 83.753, 354 83.677, 354 85 C 354 85.550, 352.705 86, 351.122 86 C 345.985 86, 334 92.335, 334 95.051 C 334 96.442, 338.404 96.208, 342.730 94.587 C 347.784 92.693, 353.829 91.914, 354.541 93.066 C 354.858 93.580, 354.079 94.010, 352.809 94.022 C 349.254 94.056, 342.296 97.579, 341 100.001 C 340.361 101.194, 340.011 102.345, 340.223 102.556 C 340.435 102.768, 343.059 102.545, 346.054 102.060 C 352.083 101.085, 354.152 101.991, 351.636 104.507 C 348.533 107.610, 349.928 109.126, 353.441 106.468 C 355.541 104.880, 361.552 104.467, 362.408 105.852 C 362.698 106.320, 361.157 107.236, 358.984 107.887 C 355.621 108.894, 353 111.324, 353 113.434 C 353 114.560, 356.663 113.966, 358.559 112.532 C 360.816 110.824, 363 110.563, 363 112 C 363 112.550, 362.100 113, 361 113 C 357.778 113, 358.408 116.832, 361.750 117.564 C 366.615 118.630, 367 118.899, 366.990 121.219 C 366.985 122.473, 365.881 125.862, 364.536 128.750 C 362.155 133.864, 362.144 134, 364.101 134 C 370.702 134, 380.136 91.067, 379.923 62 C 379.825 48.534, 378.458 43.617, 374.692 43.181 C 372.425 42.918, 370.875 43.975, 365.924 49.161 M 217.908 78.611 C 216.097 80.792, 214.814 110.634, 215.666 130.750 C 215.997 138.588, 216.047 145, 215.775 145 C 215.504 145, 211.880 143.428, 207.722 141.507 C 189.062 132.886, 170.572 132.781, 154.762 141.208 C 143.019 147.467, 130.614 164.490, 127.776 178.241 C 125.199 190.727, 131.114 206.976, 142.252 218.011 C 152.166 227.833, 165.860 233.466, 192.250 238.579 C 197.063 239.511, 201 240.662, 201 241.137 C 201 243.135, 180.833 242.399, 167.057 239.897 C 155.196 237.742, 153.176 237.586, 154.550 238.927 C 155.834 240.180, 180.959 245, 186.208 245 L 190.403 245 186.201 249.037 C 183.891 251.258, 182 253.497, 182 254.014 C 182 256.468, 195.427 261.986, 211.353 266.078 C 223.789 269.273, 247.492 273.001, 255.329 272.994 C 267.462 272.984, 292.977 268.511, 309.295 263.534 C 315.920 261.513, 325.077 257.014, 327.921 254.381 C 328.631 253.724, 323.674 248.905, 320.500 247.168 L 317.500 245.526 326.500 244.936 C 333.972 244.446, 355.460 240.486, 356.917 239.330 C 358.473 238.096, 355.033 238.292, 346.435 239.927 C 340.971 240.967, 332.794 242.130, 328.264 242.512 C 319.425 243.256, 306 242.327, 306 240.970 C 306 240.516, 308.587 239.841, 311.750 239.470 C 330.579 237.263, 352.039 230.990, 360.855 225.115 C 388.732 206.538, 391.637 174.120, 367.596 149.899 C 351.515 133.698, 327.841 130.434, 305.058 141.275 C 301.451 142.991, 298.186 144.561, 297.803 144.763 C 297.420 144.966, 296.970 131.018, 296.803 113.769 C 296.528 85.286, 296.331 82.149, 294.657 79.597 C 293.643 78.051, 292.439 77.172, 291.980 77.643 C 291.521 78.114, 289.955 82.775, 288.500 88 C 287.045 93.225, 282.785 107.625, 279.033 120 C 271.461 144.976, 268.746 156.529, 266.869 171.750 C 266.174 177.387, 265.244 182, 264.803 182 C 264.361 182, 264 181.543, 264 180.985 C 264 180.427, 262.556 179.092, 260.791 178.019 C 257.166 175.814, 253.687 176.188, 250.436 179.131 C 249.300 180.159, 248.127 181, 247.828 181 C 247.530 181, 247.041 177.512, 246.742 173.250 C 245.926 161.632, 241.607 143.995, 233.860 120.649 C 230.040 109.136, 225.579 94.961, 223.947 89.148 C 222.315 83.335, 220.605 78.205, 220.147 77.747 C 219.690 77.290, 218.682 77.678, 217.908 78.611 M 146.500 115 C 146.160 115.550, 146.584 116, 147.441 116 C 148.298 116, 149 115.550, 149 115 C 149 114.450, 148.577 114, 148.059 114 C 147.541 114, 146.840 114.450, 146.500 115 M 173.205 146.894 C 166.258 149.294, 161.249 153.425, 157.232 160.068 C 149.627 172.643, 149.077 186.832, 155.655 200.735 C 163.846 218.051, 182.775 227.041, 204.750 224.052 C 220.119 221.962, 231.633 213.943, 235.992 202.292 C 238.383 195.901, 238.528 190.446, 236.511 182.703 C 231.730 164.347, 218.825 151.088, 201.356 146.584 C 193.007 144.432, 179.917 144.576, 173.205 146.894 M 312.275 146.539 C 289.302 152.726, 273.804 172.719, 275.216 194.343 C 275.512 198.868, 276.459 203.012, 277.792 205.613 C 280.765 211.413, 289.038 218.496, 295.787 221.022 C 308.072 225.618, 325.954 225.379, 336.781 220.474 C 344.580 216.942, 353.081 208.352, 356.832 200.213 C 362.958 186.923, 362.786 174.840, 356.288 162.037 C 351.924 153.438, 346.815 148.913, 338.774 146.526 C 332.431 144.642, 319.294 144.648, 312.275 146.539 M 315.455 166.455 C 309.918 171.991, 313.735 182, 321.382 182 C 328.844 182, 331.902 171.620, 325.923 166.589 C 322.063 163.341, 318.612 163.297, 315.455 166.455 M 185.947 167.556 C 182.932 170.766, 182.675 176.879, 185.428 179.920 C 187.470 182.177, 192.778 182.724, 195.986 181.008 C 198.328 179.754, 200.363 173.746, 199.454 170.766 C 197.547 164.511, 190.403 162.813, 185.947 167.556 M 242.250 214.662 C 238.174 216.307, 244.059 227.881, 251.614 233.078 C 255.957 236.067, 256.031 236.079, 259.532 234.418 C 264.114 232.244, 269.728 225.639, 271.216 220.674 C 273.009 214.690, 271.382 213.983, 256.059 214.079 C 249.151 214.122, 242.938 214.385, 242.250 214.662 M 250.198 219.857 C 249.237 220.466, 249.810 221.381, 252.381 223.341 C 254.298 224.804, 256.210 226, 256.630 226 C 257.896 226, 265 220.792, 265 219.864 C 265 218.762, 251.933 218.756, 250.198 219.857 M 103.574 231.072 C 88.086 234.408, 63.031 242.364, 64.231 243.565 C 64.422 243.755, 70.410 242.110, 77.539 239.909 C 84.667 237.708, 95.897 234.544, 102.493 232.878 C 113.811 230.018, 117.158 228.904, 113.917 229.074 C 113.138 229.115, 108.483 230.014, 103.574 231.072 M 227.315 230.016 C 222.816 231.810, 222.299 237.513, 226.332 240.860 C 227.988 242.235, 230.669 241.340, 234.250 238.217 C 238.814 234.236, 233.246 227.652, 227.315 230.016 M 278.250 230.031 C 276.516 230.728, 276 231.740, 276 234.445 C 276 240.610, 284.002 243.416, 286.609 238.166 C 288.215 234.932, 287.257 232.184, 283.923 230.460 C 282.370 229.657, 280.964 229.029, 280.800 229.063 C 280.635 229.098, 279.488 229.534, 278.250 230.031 M 403.500 230.643 C 406.250 231.433, 417.660 234.789, 428.855 238.101 C 440.051 241.413, 449.407 243.926, 449.648 243.685 C 450.690 242.643, 422.516 233.716, 408.303 230.585 C 399.511 228.649, 396.671 228.683, 403.500 230.643 M 251 244.159 C 246.937 246.870, 245.918 247.115, 240.500 246.683 C 237.200 246.420, 233.639 245.857, 232.586 245.432 C 229.019 243.993, 231.940 246.928, 236.318 249.181 C 241.530 251.864, 248.313 252.037, 253.250 249.613 C 256.885 247.828, 257.115 247.828, 260.750 249.601 C 265.492 251.913, 271.744 251.855, 275.797 249.461 C 279.311 247.385, 281.366 244.199, 278.043 245.977 C 274.110 248.082, 266.684 247.186, 261.661 244 C 259.059 242.350, 256.609 241.035, 256.215 241.078 C 255.822 241.121, 253.475 242.507, 251 244.159 M 377 256.338 C 377 256.547, 381.163 259.552, 386.250 263.017 C 398.670 271.476, 413.754 283.281, 428.393 296 C 435.384 302.074, 439.506 305.131, 438.173 303.252 C 433.489 296.655, 405.820 273.354, 392.412 264.716 C 385.445 260.228, 377 255.637, 377 256.338 M 92.955 262.258 C 84.212 266.661, 67 277.482, 67 278.576 C 67 278.918, 68.688 278.194, 70.750 276.969 C 72.813 275.743, 80.688 271.152, 88.250 266.766 C 100.196 259.839, 103.019 258, 101.705 258 C 101.543 258, 97.606 259.916, 92.955 262.258 M 135.248 265.932 C 125.334 271.398, 112.738 281.115, 95.488 296.604 C 83.011 307.808, 84.754 308.151, 97.647 297.028 C 107.614 288.430, 129.949 271.036, 139.028 264.802 C 142.822 262.197, 141.075 262.719, 135.248 265.932 M 365.180 316.484 C 365.654 323.923, 364.704 322.602, 376.995 332.916 C 387.399 341.648, 394.841 356.462, 397.199 373.133 C 397.806 377.422, 398.693 380.690, 399.170 380.395 C 401.097 379.204, 404.975 369.864, 406.118 363.664 C 410.311 340.904, 391.567 313.911, 369.124 310.391 L 364.748 309.704 365.180 316.484 M 207.618 335.250 C 209 343.165, 212.767 351.919, 218.052 359.500 C 220.362 362.813, 220.954 364.959, 221.502 372 C 222.537 385.309, 225.461 397.704, 232.553 418.846 C 240.119 441.401, 242 449.409, 242 459.065 L 242 466 252.250 465.901 C 257.887 465.847, 264.975 465.509, 268 465.151 L 273.500 464.500 274.188 456.500 C 274.916 448.038, 277.119 439.041, 283.880 416.922 C 289.285 399.241, 290.766 391.168, 291.589 374.894 C 292.241 362.004, 292.393 361.293, 295.621 356 C 299.871 349.032, 303.014 340.144, 302.951 335.275 C 302.903 331.546, 302.874 331.574, 300.537 337.642 C 299.237 341.021, 294.461 350.246, 289.924 358.142 C 285.387 366.039, 279.909 375.593, 277.751 379.372 C 275.592 383.152, 271.654 391.252, 268.998 397.372 C 264.679 407.328, 262.465 413.791, 257.649 430.500 C 256.628 434.042, 256.178 434.749, 256.104 432.923 C 255.919 428.353, 250.157 409.395, 246.071 399.919 C 241.420 389.130, 236.206 379.934, 223.384 359.907 C 218.246 351.881, 212.640 342.318, 210.927 338.657 C 209.213 334.996, 207.640 332, 207.431 332 C 207.221 332, 207.305 333.462, 207.618 335.250 M 146.615 340.553 C 136.251 354.126, 134.509 369.091, 140.952 389.180 C 145.420 403.109, 156.737 421.796, 165.975 430.500 C 168.711 433.077, 168.379 432.254, 163.616 424.656 C 154.615 410.294, 150.898 397.988, 150.926 382.648 C 150.943 373.593, 152.691 364.432, 155.403 359.187 C 156.602 356.869, 156.604 355.896, 155.419 352.488 C 154.656 350.294, 153.514 345.902, 152.881 342.726 C 152.248 339.550, 151.369 336.728, 150.927 336.455 C 150.485 336.182, 148.545 338.026, 146.615 340.553 M 360.575 338.250 C 360.320 339.488, 359.381 343.988, 358.487 348.251 L 356.863 356.001 359.644 362.751 C 364.500 374.540, 364.040 392.862, 358.484 408.944 C 355.685 417.042, 352.808 423.419, 349.884 428 L 347.649 431.500 351.357 428.022 C 356.291 423.395, 363.821 412.351, 368.758 402.500 C 381.258 377.560, 380.750 356.769, 367.236 340.250 C 363.360 335.512, 361.268 334.884, 360.575 338.250" stroke="none" fill="black" fill-rule="evenodd"/>
</svg>